<?xml version="1.0" standalone="no"?>
<!DOCTYPE svg PUBLIC "-//W3C//DTD SVG 20010904//EN"
 "http://www.w3.org/TR/2001/REC-SVG-20010904/DTD/svg10.dtd">
<svg width="155" height="41" viewBox="0 0 155 41" fill="none" version="1.0" xmlns="http://www.w3.org/2000/svg"
 width="679.000000pt" height="678.000000pt" viewBox="0 0 679.000000 678.000000"
 preserveAspectRatio="xMidYMid meet">

<g transform="translate(0.000000,678.000000) scale(0.100000,-0.100000)"
fill="#000000" stroke="none">
<path d="M0 6727 c0 -44 4 -58 25 -77 19 -18 22 -26 14 -37 -9 -10 -15 -10
-25 -2 -12 10 -14 -48 -14 -366 0 -318 2 -376 14 -366 10 8 16 8 25 -2 8 -11
5 -19 -14 -37 l-25 -23 0 -697 0 -697 25 -23 c19 -18 22 -26 14 -37 -9 -10
-15 -10 -25 -2 -12 10 -14 -48 -14 -366 0 -318 2 -376 14 -366 10 8 16 8 25
-2 8 -11 5 -19 -14 -37 l-25 -23 0 -697 0 -697 25 -23 c19 -18 22 -26 14 -37
-9 -10 -15 -10 -25 -2 -12 10 -14 -48 -14 -366 0 -318 2 -376 14 -366 10 8 16
8 25 -2 8 -11 5 -19 -14 -37 l-25 -23 0 -659 0 -658 442 0 443 0 152 152 c121
121 155 150 165 140 10 -10 -16 -41 -127 -152 l-140 -140 595 0 595 0 -140
140 c-111 111 -137 142 -127 152 10 10 44 -19 165 -140 l152 -152 481 0 c468
0 481 1 499 20 15 17 29 20 89 18 62 -1 64 -2 19 -5 -29 -2 -57 -10 -63 -18
-11 -13 64 -15 581 -15 l593 0 -64 65 c-53 54 -61 65 -46 71 13 5 36 -11 90
-65 l71 -71 480 0 480 0 152 152 c121 121 155 150 165 140 10 -10 -16 -41
-127 -152 l-140 -140 595 0 595 0 -140 140 c-111 111 -137 142 -127 152 10 10
44 -19 165 -140 l152 -152 58 0 57 0 0 677 0 678 -210 -210 c-167 -167 -212
-207 -222 -197 -10 10 31 56 202 227 117 117 217 212 222 209 4 -3 8 160 8
362 0 202 -3 364 -7 360 -4 -3 -49 35 -100 86 -51 51 -93 86 -93 79 0 -8 -2
-12 -5 -9 -3 2 1 22 9 44 8 21 15 32 15 24 1 -9 42 -56 91 -105 l90 -90 0 735
c0 458 -4 730 -9 725 -6 -6 -12 -32 -14 -60 -2 -30 -4 -20 -3 25 1 54 4 74 14
72 9 -1 12 76 12 364 0 201 -4 363 -8 360 -5 -3 -55 42 -112 99 -57 57 -107
102 -110 100 -4 -3 -20 28 -36 68 -37 91 -39 99 -17 60 17 -30 90 -108 222
-238 l61 -59 0 734 0 735 -210 -210 c-167 -167 -212 -207 -222 -197 -10 10 31
56 202 227 117 117 217 212 222 209 4 -3 8 160 8 361 0 201 -4 364 -8 361 -5
-3 -49 35 -98 85 l-89 89 -565 0 -565 0 -90 -90 c-70 -71 -92 -87 -102 -78
-12 9 1 26 64 90 l78 78 -510 0 -510 0 78 -78 c63 -64 76 -81 64 -90 -10 -9
-32 7 -102 78 l-90 90 -566 0 -566 0 -42 -45 c-31 -34 -49 -45 -71 -45 l-29 0
47 45 47 45 -510 0 -510 0 78 -78 c63 -64 76 -81 64 -90 -10 -9 -32 7 -102 78
l-90 90 -565 0 -565 0 -90 -90 c-70 -71 -92 -87 -102 -78 -12 9 1 26 64 90
l78 78 -458 0 -457 0 0 -53z m3283 -24 c-18 -2 -48 -2 -65 0 -18 2 -4 4 32 4
36 0 50 -2 33 -4z m360 0 c-18 -2 -48 -2 -65 0 -18 2 -4 4 32 4 36 0 50 -2 33
-4z m135 -10 c-10 -2 -28 -2 -40 0 -13 2 -5 4 17 4 22 1 32 -1 23 -4z m-745
-10 c-7 -2 -19 -2 -25 0 -7 3 -2 5 12 5 14 0 19 -2 13 -5z m820 0 c-7 -2 -19
-2 -25 0 -7 3 -2 5 12 5 14 0 19 -2 13 -5z m-890 -10 c-7 -2 -21 -2 -30 0 -10
3 -4 5 12 5 17 0 24 -2 18 -5z m970 0 c-7 -2 -21 -2 -30 0 -10 3 -4 5 12 5 17
0 24 -2 18 -5z m-1036 -9 c-3 -3 -12 -4 -19 -1 -8 3 -5 6 6 6 11 1 17 -2 13
-5z m1090 0 c-3 -3 -12 -4 -19 -1 -8 3 -5 6 6 6 11 1 17 -2 13 -5z m-1144 -11
c-7 -2 -19 -2 -25 0 -7 3 -2 5 12 5 14 0 19 -2 13 -5z m1200 0 c-7 -2 -19 -2
-25 0 -7 3 -2 5 12 5 14 0 19 -2 13 -5z m-1256 -9 c-3 -3 -12 -4 -19 -1 -8 3
-5 6 6 6 11 1 17 -2 13 -5z m1310 0 c-3 -3 -12 -4 -19 -1 -8 3 -5 6 6 6 11 1
17 -2 13 -5z m-1360 -10 c-3 -3 -12 -4 -19 -1 -8 3 -5 6 6 6 11 1 17 -2 13 -5z
m917 -9 c534 -28 1105 -220 1571 -528 362 -240 692 -570 933 -933 636 -961
711 -2217 195 -3249 -164 -327 -348 -580 -618 -851 -582 -584 -1321 -912
-2147 -953 -627 -31 -1235 115 -1783 427 -424 242 -825 620 -1102 1037 -637
963 -713 2217 -196 3250 165 329 350 584 617 850 472 470 1013 763 1656 893
230 47 517 74 695 66 39 -2 119 -6 179 -9z m493 9 c-3 -3 -12 -4 -19 -1 -8 3
-5 6 6 6 11 1 17 -2 13 -5z m-1460 -10 c-3 -3 -12 -4 -19 -1 -8 3 -5 6 6 6 11
1 17 -2 13 -5z m1510 0 c-3 -3 -12 -4 -19 -1 -8 3 -5 6 6 6 11 1 17 -2 13 -5z
m-1550 -10 c-3 -3 -12 -4 -19 -1 -8 3 -5 6 6 6 11 1 17 -2 13 -5z m1590 0 c-3
-3 -12 -4 -19 -1 -8 3 -5 6 6 6 11 1 17 -2 13 -5z m-3615 -150 c78 -40 76
-179 -2 -219 -16 -8 -36 -15 -45 -15 -8 0 -15 -4 -15 -10 0 -5 7 -10 15 -10 9
0 29 -7 45 -15 81 -42 79 -179 -3 -221 -74 -39 -166 -11 -198 59 -13 30 -19
36 -19 20 0 -12 -12 -35 -26 -52 -78 -92 -234 -37 -234 82 0 65 38 112 105
128 23 5 16 7 -33 8 l-63 1 3 128 3 127 43 3 42 3 0 -85 0 -86 75 0 75 0 0
-45 0 -45 -52 -1 c-48 -1 -50 -2 -22 -10 28 -8 82 -54 73 -63 -2 -2 -17 -11
-34 -19 l-30 -16 41 -1 c37 0 43 3 54 31 14 33 62 69 93 69 9 0 17 5 17 10 0
6 -7 10 -15 10 -55 0 -105 60 -105 125 0 107 108 162 212 109z m4500 0 c57
-29 75 -120 37 -183 -19 -32 -19 -34 -2 -48 10 -8 5 -7 -12 3 -16 10 -97 53
-180 96 -82 43 -146 78 -142 78 4 0 25 -9 46 -19 l37 -20 13 34 c27 75 120
101 203 59z m-2932 6 c-8 -5 -19 -10 -25 -10 -5 0 -3 5 5 10 8 5 20 10 25 10
6 0 3 -5 -5 -10z m2550 -5 c0 -7 8 -19 18 -24 31 -19 6 -11 -49 13 l-54 25 43
0 c30 1 42 -3 42 -14z m-2610 -20 c-14 -8 -29 -14 -35 -14 -5 0 1 6 15 14 14
8 30 14 35 14 6 0 -1 -6 -15 -14z m-91 -39 c-10 -9 -209 -106 -209 -101 0 6
191 104 204 104 5 1 7 -1 5 -3z m-475 -112 c24 -24 20 -61 -9 -80 -23 -15 -27
-15 -50 0 -42 28 -24 96 25 96 10 0 26 -7 34 -16z m4500 0 c24 -24 20 -61 -9
-80 -23 -15 -27 -15 -50 0 -42 28 -24 96 25 96 10 0 26 -7 34 -16z m-4264 -9
c0 -2 -10 -9 -22 -15 -22 -11 -22 -10 -4 4 21 17 26 19 26 11z m-70 -40 c0 -2
-10 -9 -22 -15 -22 -11 -22 -10 -4 4 21 17 26 19 26 11z m-80 -50 c0 -2 -10
-9 -22 -15 -22 -11 -22 -10 -4 4 21 17 26 19 26 11z m3600 -21 c0 -2 -9 0 -20
6 -11 6 -20 13 -20 16 0 2 9 0 20 -6 11 -6 20 -13 20 -16z m-3710 -48 c0 -2
-8 -10 -17 -17 -16 -13 -17 -12 -4 4 13 16 21 21 21 13z m3801 -13 c13 -16 12
-17 -3 -4 -10 7 -18 15 -18 17 0 8 8 3 21 -13z m-3841 -17 c0 -3 -15 -14 -32
-26 l-33 -22 30 26 c31 27 35 29 35 22z m3920 -42 c0 -3 -13 4 -30 16 -16 12
-30 24 -30 26 0 3 14 -4 30 -16 17 -12 30 -24 30 -26z m-3990 -8 c0 -2 -19
-19 -42 -36 l-43 -32 40 36 c40 36 45 39 45 32z m4080 -63 c0 -2 -18 10 -40
27 -22 17 -40 34 -40 37 0 2 18 -10 40 -27 22 -17 40 -34 40 -37z m-4170 -7
c0 -2 -8 -10 -17 -17 -16 -13 -17 -12 -4 4 13 16 21 21 21 13z m4201 -13 c13
-16 12 -17 -3 -4 -10 7 -18 15 -18 17 0 8 8 3 21 -13z m-4241 -16 c0 -2 -15
-16 -32 -33 l-33 -29 29 33 c28 30 36 37 36 29z m4296 -29 l29 -33 -32 29
c-31 28 -38 36 -30 36 2 0 16 -15 33 -32z m-4488 -146 c56 57 102 101 102 98
0 -3 -64 -68 -142 -145 -78 -77 -130 -126 -115 -110 l27 31 -110 109 c-87 86
-107 112 -98 123 9 11 33 -8 122 -97 l111 -111 103 102z m4687 -42 c77 -77
137 -140 135 -140 -3 0 -68 63 -145 140 -77 77 -137 140 -135 140 3 0 68 -63
145 -140z m-4875 -163 c0 -2 -17 -19 -37 -38 l-38 -34 34 38 c33 34 41 42 41
34z m5060 -32 c19 -19 32 -35 29 -35 -3 0 -20 16 -39 35 -19 19 -32 35 -29 35
3 0 20 -16 39 -35z m-5130 -49 c0 -2 -8 -10 -17 -17 -16 -13 -17 -12 -4 4 13
16 21 21 21 13z m5181 -13 c13 -16 12 -17 -3 -4 -10 7 -18 15 -18 17 0 8 8 3
21 -13z m-5241 -63 c-17 -22 -34 -40 -37 -40 -2 0 10 18 27 40 17 22 34 40 37
40 2 0 -10 -18 -27 -40z m5370 -26 c70 0 105 -21 134 -78 22 -45 16 -94 -18
-132 l-22 -27 -26 44 c-14 24 -63 94 -107 154 -45 61 -68 94 -51 75 28 -32 35
-35 90 -36z m-5430 -54 c-12 -16 -24 -30 -26 -30 -3 0 4 14 16 30 12 17 24 30
26 30 3 0 -4 -13 -16 -30z m-30 -44 c0 -2 -8 -10 -17 -17 -16 -13 -17 -12 -4
4 13 16 21 21 21 13z m-80 -116 c-6 -11 -13 -20 -16 -20 -2 0 0 9 6 20 6 11
13 20 16 20 2 0 0 -9 -6 -20z m-178 -17 c22 -20 23 -41 1 -65 -20 -22 -51 -23
-75 -1 -22 20 -23 41 -1 65 20 22 51 23 75 1z m128 -63 c-6 -11 -13 -20 -16
-20 -2 0 0 9 6 20 6 11 13 20 16 20 2 0 0 -9 -6 -20z m5730 0 c6 -11 8 -20 6
-20 -3 0 -10 9 -16 20 -6 11 -8 20 -6 20 3 0 10 -9 16 -20z m-5770 -70 c-6
-11 -13 -20 -16 -20 -2 0 0 9 6 20 6 11 13 20 16 20 2 0 0 -9 -6 -20z m5810 0
c6 -11 8 -20 6 -20 -3 0 -10 9 -16 20 -6 11 -8 20 -6 20 3 0 10 -9 16 -20z
m-5892 -155 c-29 -57 -54 -103 -56 -101 -4 5 96 206 103 206 3 0 -19 -47 -47
-105z m5973 4 c27 -56 49 -103 47 -105 -2 -2 -27 44 -56 101 -28 58 -50 105
-47 105 3 0 28 -45 56 -101z m-6065 -196 c-8 -15 -15 -25 -16 -21 0 12 23 58
27 54 3 -2 -2 -17 -11 -33z m-25 -60 c-12 -20 -14 -14 -5 12 4 9 9 14 11 11 3
-2 0 -13 -6 -23z m-131 -390 c-1 -5 -11 -55 -25 -113 l-23 -105 -1 106 c-1 58
2 109 6 112 9 9 43 9 43 0z m6477 -65 c-3 -8 -6 -5 -6 6 -1 11 2 17 5 13 3 -3
4 -12 1 -19z m10 -40 c-3 -8 -6 -5 -6 6 -1 11 2 17 5 13 3 -3 4 -12 1 -19z
m10 -50 c-3 -8 -6 -5 -6 6 -1 11 2 17 5 13 3 -3 4 -12 1 -19z m10 -50 c-3 -8
-6 -5 -6 6 -1 11 2 17 5 13 3 -3 4 -12 1 -19z m-6560 -60 c-3 -7 -5 -2 -5 12
0 14 2 19 5 13 2 -7 2 -19 0 -25z m6570 0 c-3 -7 -5 -2 -5 12 0 14 2 19 5 13
2 -7 2 -19 0 -25z m-6580 -50 c-3 -8 -6 -5 -6 6 -1 11 2 17 5 13 3 -3 4 -12 1
-19z m6590 0 c-3 -8 -6 -5 -6 6 -1 11 2 17 5 13 3 -3 4 -12 1 -19z m-6600 -65
c-3 -10 -5 -4 -5 12 0 17 2 24 5 18 2 -7 2 -21 0 -30z m6610 0 c-3 -10 -5 -4
-5 12 0 17 2 24 5 18 2 -7 2 -21 0 -30z m-6620 -75 c-3 -7 -5 -2 -5 12 0 14 2
19 5 13 2 -7 2 -19 0 -25z m6630 0 c-3 -7 -5 -2 -5 12 0 14 2 19 5 13 2 -7 2
-19 0 -25z m-6640 -90 c-2 -13 -4 -5 -4 17 -1 22 1 32 4 23 2 -10 2 -28 0 -40z
m6650 0 c-2 -13 -4 -5 -4 17 -1 22 1 32 4 23 2 -10 2 -28 0 -40z m-6660 -160
c-2 -18 -4 -4 -4 32 0 36 2 50 4 33 2 -18 2 -48 0 -65z m0 -360 c-2 -18 -4 -4
-4 32 0 36 2 50 4 33 2 -18 2 -48 0 -65z m6670 0 c-2 -18 -4 -4 -4 32 0 36 2
50 4 33 2 -18 2 -48 0 -65z m-6660 -130 c-2 -13 -4 -5 -4 17 -1 22 1 32 4 23
2 -10 2 -28 0 -40z m6650 0 c-2 -13 -4 -5 -4 17 -1 22 1 32 4 23 2 -10 2 -28
0 -40z m-6640 -80 c-3 -7 -5 -2 -5 12 0 14 2 19 5 13 2 -7 2 -19 0 -25z m6630
0 c-3 -7 -5 -2 -5 12 0 14 2 19 5 13 2 -7 2 -19 0 -25z m-6620 -75 c-3 -10 -5
-4 -5 12 0 17 2 24 5 18 2 -7 2 -21 0 -30z m6610 0 c-3 -10 -5 -4 -5 12 0 17
2 24 5 18 2 -7 2 -21 0 -30z m-6600 -55 c-3 -8 -6 -5 -6 6 -1 11 2 17 5 13 3
-3 4 -12 1 -19z m6590 0 c-3 -8 -6 -5 -6 6 -1 11 2 17 5 13 3 -3 4 -12 1 -19z
m-6580 -60 c-3 -7 -5 -2 -5 12 0 14 2 19 5 13 2 -7 2 -19 0 -25z m6570 0 c-3
-7 -5 -2 -5 12 0 14 2 19 5 13 2 -7 2 -19 0 -25z m-6560 -50 c-3 -8 -6 -5 -6
6 -1 11 2 17 5 13 3 -3 4 -12 1 -19z m6550 0 c-3 -8 -6 -5 -6 6 -1 11 2 17 5
13 3 -3 4 -12 1 -19z m-6540 -50 c-3 -8 -6 -5 -6 6 -1 11 2 17 5 13 3 -3 4
-12 1 -19z m6530 0 c-3 -8 -6 -5 -6 6 -1 11 2 17 5 13 3 -3 4 -12 1 -19z
m-6520 -50 c-3 -8 -6 -5 -6 6 -1 11 2 17 5 13 3 -3 4 -12 1 -19z m6510 0 c-3
-8 -6 -5 -6 6 -1 11 2 17 5 13 3 -3 4 -12 1 -19z m-6500 -40 c-3 -8 -6 -5 -6
6 -1 11 2 17 5 13 3 -3 4 -12 1 -19z m6490 0 c-3 -8 -6 -5 -6 6 -1 11 2 17 5
13 3 -3 4 -12 1 -19z m-6337 -463 c0 -5 -5 -3 -10 5 -5 8 -10 20 -10 25 0 6 5
3 10 -5 5 -8 10 -19 10 -25z m6191 8 c-12 -20 -14 -14 -5 12 4 9 9 14 11 11 3
-2 0 -13 -6 -23z m-6162 -78 c0 -5 -6 1 -14 15 -8 14 -14 30 -14 35 0 6 6 -1
14 -15 8 -14 14 -29 14 -35z m6137 18 c-8 -15 -15 -25 -16 -21 0 12 23 58 27
54 3 -2 -2 -17 -11 -33z m-6266 -158 l0 -85 75 0 75 0 0 -45 0 -45 -52 -1
c-48 -1 -50 -2 -22 -10 28 -8 82 -54 73 -63 -2 -2 -17 -11 -34 -19 l-30 -16
41 -1 c37 0 42 3 57 36 12 25 30 41 57 52 22 10 40 19 40 22 0 4 -16 12 -36
19 -51 18 -75 62 -72 131 1 30 -3 65 -10 77 -7 12 -12 25 -12 30 0 4 35 -59
78 -142 43 -82 106 -194 140 -247 33 -54 58 -97 54 -96 -4 1 -23 -6 -42 -17
-76 -40 -168 -14 -201 58 -13 30 -19 36 -19 20 0 -12 -12 -35 -26 -52 -78 -92
-234 -37 -234 82 0 65 38 112 105 128 23 5 16 7 -32 8 l-63 1 0 123 c0 68 3
127 7 130 3 4 24 7 45 7 l38 0 0 -85z m6181 -24 c-28 -56 -53 -101 -56 -101
-3 0 19 47 47 105 29 57 54 103 56 101 2 -2 -20 -49 -47 -105z m-81 -151 c-6
-11 -13 -20 -16 -20 -2 0 0 9 6 20 6 11 13 20 16 20 2 0 0 -9 -6 -20z m-40
-70 c-6 -11 -13 -20 -16 -20 -2 0 0 9 6 20 6 11 13 20 16 20 2 0 0 -9 -6 -20z
m-50 -80 c-6 -11 -13 -20 -16 -20 -2 0 0 9 6 20 6 11 13 20 16 20 2 0 0 -9 -6
-20z m-5559 -107 c13 -16 12 -17 -3 -4 -10 7 -18 15 -18 17 0 8 8 3 21 -13z
m5499 13 c0 -2 -8 -10 -17 -17 -16 -13 -17 -12 -4 4 13 16 21 21 21 13z
m-5460 -66 c12 -16 19 -30 16 -30 -2 0 -14 14 -26 30 -12 17 -19 30 -16 30 2
0 14 -13 26 -30z m5410 0 c-12 -16 -24 -30 -26 -30 -3 0 4 14 16 30 12 17 24
30 26 30 3 0 -4 -13 -16 -30z m-5350 -80 c17 -22 29 -40 27 -40 -3 0 -20 18
-37 40 -17 22 -29 40 -27 40 3 0 20 -18 37 -40z m5290 0 c-17 -22 -34 -40 -37
-40 -2 0 10 18 27 40 17 22 34 40 37 40 2 0 -10 -18 -27 -40z m-5239 -67 c13
-16 12 -17 -3 -4 -10 7 -18 15 -18 17 0 8 8 3 21 -13z m5199 13 c0 -2 -8 -10
-17 -17 -16 -13 -17 -12 -4 4 13 16 21 21 21 13z m-5154 -68 l29 -33 -32 29
c-31 28 -38 36 -30 36 2 0 16 -15 33 -32z m5124 29 c0 -2 -15 -16 -32 -33
l-33 -29 29 33 c28 30 36 37 36 29z m-4935 -227 c77 -77 137 -140 135 -140 -3
0 -68 63 -145 140 -77 77 -137 140 -135 140 3 0 68 -63 145 -140z m4855 137
c0 -1 -64 -65 -142 -142 l-143 -140 140 143 c130 132 145 147 145 139z m320
-286 c38 -27 63 -85 55 -128 -8 -46 -63 -103 -99 -103 -14 0 -26 -4 -26 -10 0
-5 12 -10 26 -10 36 0 91 -57 99 -103 5 -26 2 -47 -11 -73 -27 -54 -64 -78
-123 -78 -56 0 -95 21 -119 65 -18 31 -32 38 -32 15 0 -23 -56 -73 -91 -80
-43 -8 -100 8 -127 37 -69 73 -35 195 60 217 29 7 26 8 -24 9 l-58 1 0 130 0
130 45 0 45 0 0 -85 0 -84 73 -3 72 -3 0 -40 0 -40 -50 -6 c-27 -3 -42 -7 -32
-7 25 -3 77 -40 77 -56 0 -7 -12 -19 -27 -27 l-28 -13 35 -4 c26 -3 38 1 45
14 22 41 74 84 99 84 14 0 26 5 26 10 0 6 -11 10 -24 10 -47 0 -106 69 -106
125 0 31 21 73 48 98 43 39 123 43 172 8z m-4816 -165 c77 -57 190 -134 253
-172 62 -37 113 -73 113 -80 0 -7 -12 -26 -26 -43 -51 -62 -157 -62 -208 0
-14 17 -26 35 -26 40 0 5 -4 9 -10 9 -5 0 -10 -6 -10 -14 0 -23 -56 -73 -91
-80 -43 -8 -100 8 -127 37 -69 73 -35 195 60 217 29 7 26 8 -24 9 l-58 1 0 92
c0 86 -2 94 -27 122 l-28 31 35 -32 c20 -18 98 -79 174 -137z m4196 161 c0 -2
-17 -19 -37 -38 l-38 -34 34 38 c33 34 41 42 41 34z m-80 -71 c0 -2 -8 -10
-17 -17 -16 -13 -17 -12 -4 4 13 16 21 21 21 13z m-40 -30 c0 -2 -19 -19 -42
-36 l-43 -32 40 36 c40 36 45 39 45 32z m-90 -70 c0 -3 -15 -14 -32 -26 l-33
-22 30 26 c31 27 35 29 35 22z m-4978 -33 c22 -20 23 -41 1 -65 -20 -22 -51
-23 -75 -1 -22 20 -23 41 -1 65 20 22 51 23 75 1z m4908 -17 c0 -2 -8 -10 -17
-17 -16 -13 -17 -12 -4 4 13 16 21 21 21 13z m-100 -71 c0 -2 -10 -9 -22 -15
-22 -11 -22 -10 -4 4 21 17 26 19 26 11z m-80 -50 c0 -2 -10 -9 -22 -15 -22
-11 -22 -10 -4 4 21 17 26 19 26 11z m-70 -40 c0 -2 -10 -9 -22 -15 -22 -11
-22 -10 -4 4 21 17 26 19 26 11z m-3064 -143 c-5 -4 -206 96 -206 103 0 3 47
-19 105 -47 57 -29 103 -54 101 -56z m2994 103 c0 -6 -197 -105 -207 -104 -6
0 194 106 205 108 1 1 2 -1 2 -4z m-2900 -140 c14 -8 21 -14 15 -14 -5 0 -21
6 -35 14 -14 8 -20 14 -15 14 6 0 21 -6 35 -14z m2620 0 c-14 -8 -29 -14 -35
-14 -5 0 1 6 15 14 14 8 30 14 35 14 6 0 -1 -6 -15 -14z m-2560 -25 c8 -5 11
-10 5 -10 -5 0 -17 5 -25 10 -8 5 -10 10 -5 10 6 0 17 -5 25 -10z m2500 0 c-8
-5 -19 -10 -25 -10 -5 0 -3 5 5 10 8 5 20 10 25 10 6 0 3 -5 -5 -10z m-2043
-146 c-3 -3 -12 -4 -19 -1 -8 3 -5 6 6 6 11 1 17 -2 13 -5z m1590 0 c-3 -3
-12 -4 -19 -1 -8 3 -5 6 6 6 11 1 17 -2 13 -5z m-1550 -10 c-3 -3 -12 -4 -19
-1 -8 3 -5 6 6 6 11 1 17 -2 13 -5z m1510 0 c-3 -3 -12 -4 -19 -1 -8 3 -5 6 6
6 11 1 17 -2 13 -5z m-1460 -10 c-3 -3 -12 -4 -19 -1 -8 3 -5 6 6 6 11 1 17
-2 13 -5z m1410 0 c-3 -3 -12 -4 -19 -1 -8 3 -5 6 6 6 11 1 17 -2 13 -5z
m-1360 -10 c-3 -3 -12 -4 -19 -1 -8 3 -5 6 6 6 11 1 17 -2 13 -5z m1310 0 c-3
-3 -12 -4 -19 -1 -8 3 -5 6 6 6 11 1 17 -2 13 -5z m-1254 -11 c-7 -2 -19 -2
-25 0 -7 3 -2 5 12 5 14 0 19 -2 13 -5z m1200 0 c-7 -2 -19 -2 -25 0 -7 3 -2
5 12 5 14 0 19 -2 13 -5z m-1146 -9 c-3 -3 -12 -4 -19 -1 -8 3 -5 6 6 6 11 1
17 -2 13 -5z m1090 0 c-3 -3 -12 -4 -19 -1 -8 3 -5 6 6 6 11 1 17 -2 13 -5z
m-1024 -11 c-7 -2 -21 -2 -30 0 -10 3 -4 5 12 5 17 0 24 -2 18 -5z m970 0 c-7
-2 -21 -2 -30 0 -10 3 -4 5 12 5 17 0 24 -2 18 -5z m-900 -10 c-7 -2 -19 -2
-25 0 -7 3 -2 5 12 5 14 0 19 -2 13 -5z m820 0 c-7 -2 -19 -2 -25 0 -7 3 -2 5
12 5 14 0 19 -2 13 -5z m-725 -10 c-10 -2 -28 -2 -40 0 -13 2 -5 4 17 4 22 1
32 -1 23 -4z m650 0 c-10 -2 -28 -2 -40 0 -13 2 -5 4 17 4 22 1 32 -1 23 -4z
m-135 -10 c-18 -2 -48 -2 -65 0 -18 2 -4 4 32 4 36 0 50 -2 33 -4z"/>
<path d="M3070 6555 c-521 -65 -982 -233 -1400 -509 -677 -448 -1149 -1112
-1345 -1891 -75 -298 -90 -430 -90 -790 1 -336 10 -433 70 -700 210 -936 834
-1732 1694 -2160 317 -158 606 -249 981 -308 117 -19 177 -21 450 -21 341 0
435 9 705 69 936 209 1732 834 2160 1694 158 317 249 606 308 981 19 117 21
177 21 450 0 341 -9 435 -69 705 -210 936 -834 1731 -1695 2161 -313 156 -608
248 -975 306 -172 27 -641 34 -815 13z m157 -1293 c206 -65 346 -290 312 -503
-31 -196 -158 -333 -354 -384 -75 -19 -133 -18 -216 3 -280 74 -425 383 -301
645 53 113 168 213 280 243 72 19 210 17 279 -4z m983 -392 l25 -19 3 -668 2
-668 -173 -173 -173 -172 -415 0 c-374 0 -417 2 -449 18 -20 10 -37 27 -41 42
-4 14 -7 263 -8 554 l-1 528 23 -6 c12 -3 28 -6 35 -6 9 0 12 -113 12 -530 l0
-530 409 0 409 0 4 123 c5 183 28 207 198 207 l100 0 0 495 0 495 -315 0 -315
0 17 35 17 35 298 0 298 0 0 95 0 95 -280 0 -280 0 0 35 0 35 288 0 c267 0
289 -2 312 -20z m-304 -132 c8 -27 -18 -48 -62 -48 -47 0 -64 9 -64 34 0 32 7
36 66 36 45 0 54 -3 60 -22z m192 10 c16 -16 15 -23 -4 -42 -30 -30 -124 -13
-124 23 0 29 102 45 128 19z m-160 -427 c2 -13 -2 -28 -10 -32 -15 -10 -608
-12 -632 -3 -16 6 -22 45 -9 57 4 4 151 6 327 5 l321 -3 3 -24z m-14 -144 c10
-7 16 -22 14 -33 -3 -18 -15 -19 -328 -19 -313 0 -325 1 -328 19 -9 43 15 46
328 46 229 0 300 -3 314 -13z m14 -189 c3 -22 -2 -28 -20 -33 -13 -3 -158 -4
-322 -3 -262 3 -300 5 -309 19 -6 9 -7 24 -4 33 6 15 37 16 329 14 l323 -3 3
-27z m-10 -137 c8 -4 12 -19 10 -32 l-3 -24 -325 0 c-313 0 -325 1 -328 19 -9
43 15 46 332 46 166 0 307 -4 314 -9z m10 -193 c3 -22 -2 -28 -20 -33 -13 -3
-158 -4 -322 -3 -262 3 -300 5 -309 19 -6 9 -7 24 -4 33 6 15 37 16 329 14
l323 -3 3 -27z m-1683 -718 c19 -19 45 -59 57 -89 20 -50 22 -74 22 -216 0
-157 0 -161 -34 -250 -27 -73 -43 -100 -90 -148 -48 -49 -62 -58 -86 -55 -23
2 -28 7 -25 23 7 37 0 539 -9 649 -5 60 -7 113 -3 118 3 6 34 8 69 6 56 -3 68
-8 99 -38z m755 -45 c0 -3 -12 -58 -26 -123 -14 -64 -34 -180 -44 -257 -10
-77 -23 -165 -29 -195 -6 -30 -13 -71 -16 -90 -7 -46 -19 -64 -39 -57 -11 4
-16 19 -16 48 0 85 -67 465 -106 598 -15 54 -8 85 14 59 13 -17 76 -310 97
-458 9 -63 19 -122 22 -130 8 -21 18 30 38 180 14 107 54 332 72 408 4 18 33
33 33 17z m1664 -19 c51 -21 66 -50 66 -126 0 -46 -8 -83 -25 -125 -14 -33
-25 -67 -25 -76 0 -8 18 -87 41 -175 52 -205 54 -214 40 -214 -18 0 -38 57
-61 176 -33 169 -47 214 -66 207 -15 -5 -16 -26 -9 -191 6 -152 5 -184 -7
-180 -9 3 -15 39 -19 134 -9 178 -10 569 -2 577 10 11 30 8 67 -7z m-2055 -18
c22 -8 23 -10 9 -24 -11 -12 -21 -13 -42 -4 -51 19 -53 17 -60 -94 -3 -57 -4
-110 0 -119 3 -10 20 -17 42 -19 29 -2 37 -7 37 -23 0 -17 -6 -20 -38 -17
l-37 3 2 -178 3 -178 53 -3 c87 -5 62 -42 -30 -42 -73 0 -68 -26 -68 359 0
191 3 351 7 355 8 8 86 -2 122 -16z m650 0 c22 -8 23 -10 9 -24 -11 -12 -21
-13 -42 -4 -51 19 -53 17 -59 -95 -4 -57 -4 -111 -1 -119 3 -9 21 -16 42 -18
29 -2 37 -7 37 -23 0 -17 -6 -20 -38 -17 l-37 3 2 -178 3 -178 53 -3 c87 -5
62 -42 -30 -42 -73 0 -68 -26 -68 359 0 191 3 351 7 355 8 8 86 -2 122 -16z
m560 2 c30 -16 61 -96 73 -188 14 -112 4 -330 -17 -402 -37 -122 -125 -148
-174 -52 -35 69 -45 149 -45 347 -1 266 18 323 102 311 23 -3 51 -10 61 -16z
m619 -2 c13 -4 22 -14 19 -21 -5 -13 -12 -13 -69 -2 l-38 7 0 -121 0 -121 33
0 c41 0 62 -13 54 -34 -5 -13 -15 -15 -47 -10 l-40 7 0 -166 c0 -91 3 -172 6
-181 4 -12 20 -16 54 -16 54 0 72 -13 41 -29 -28 -15 -116 -14 -129 2 -12 14
-9 677 3 696 6 11 70 5 113 -11z m-998 -323 l0 -335 60 0 c45 0 60 -4 60 -14
0 -11 -18 -15 -71 -18 -38 -2 -74 1 -79 6 -9 9 -4 627 6 674 2 12 9 22 14 22
6 0 10 -123 10 -335z m722 306 l33 -29 0 -105 c0 -120 -11 -145 -79 -180 l-38
-20 4 -171 c3 -151 1 -171 -13 -174 -10 -2 -19 6 -23 20 -8 31 -8 673 1 681 3
4 24 7 45 7 28 0 46 -8 70 -29z m-192 -1131 c0 -216 -2 -250 -15 -250 -9 0
-15 9 -15 21 l0 21 -34 -21 c-51 -32 -125 -29 -164 7 -54 51 -68 157 -29 232
38 76 122 104 195 66 l32 -17 0 96 c0 78 3 95 15 95 13 0 15 -34 15 -250z
m-1647 207 c18 -8 38 -21 45 -30 21 -25 -3 -29 -43 -6 -27 16 -47 20 -80 17
-86 -10 -134 -71 -142 -182 -7 -84 11 -142 57 -188 34 -35 42 -38 92 -38 42 0
64 6 91 25 37 24 60 18 36 -11 -44 -53 -169 -60 -231 -12 -52 39 -72 89 -76
186 -3 61 0 95 12 126 38 100 146 151 239 113z m789 -133 c100 -51 98 -257 -2
-309 -16 -8 -51 -15 -79 -15 -86 0 -141 66 -141 170 0 139 107 213 222 154z
m1601 4 c32 -16 57 -70 57 -120 l0 -48 -119 0 -119 0 7 -33 c11 -47 32 -75 67
-92 40 -19 65 -19 109 -1 31 13 45 12 45 -4 0 -14 -53 -30 -103 -30 -67 0
-112 27 -137 83 -69 150 61 314 193 245z"/>
<path d="M2980 5204 c-110 -30 -199 -105 -253 -214 -30 -60 -32 -72 -32 -165
0 -91 3 -106 31 -165 97 -203 328 -284 531 -185 118 58 189 153 214 288 14 76
3 149 -35 232 -78 170 -271 259 -456 209z m343 -139 c9 -8 18 -45 22 -84 18
-177 -43 -318 -157 -366 -38 -15 -154 -19 -213 -6 -22 5 -43 -1 -82 -22 -62
-33 -88 -32 -88 3 0 19 10 30 42 48 l42 23 -15 41 c-20 56 -18 104 7 154 35
72 96 103 286 144 34 8 65 23 90 45 44 39 46 40 66 20z"/>
<path d="M3240 4956 c-14 -8 -63 -21 -109 -30 -144 -29 -202 -72 -200 -150 1
-81 8 -84 75 -31 32 26 73 61 90 77 36 33 67 34 72 2 2 -16 -17 -39 -70 -88
l-72 -66 59 0 c122 0 182 69 192 219 3 45 2 81 -3 81 -5 -1 -20 -7 -34 -14z"/>
<path d="M3980 3503 c-31 -11 -40 -37 -40 -112 l0 -76 90 90 c49 49 88 90 87
91 -7 5 -125 12 -137 7z"/>
<path d="M2125 2808 c4 -73 10 -234 14 -358 l6 -225 42 39 c76 68 123 210 123
369 0 192 -59 307 -159 307 l-33 0 7 -132z"/>
<path d="M4630 2719 c0 -125 2 -140 17 -137 51 10 82 209 39 257 -11 12 -27
21 -38 21 -17 0 -18 -11 -18 -141z"/>
<path d="M3724 2824 c-15 -22 -17 -58 -18 -262 -1 -253 5 -299 47 -348 46 -53
87 -11 108 112 16 92 4 410 -17 464 -24 61 -91 80 -120 34z"/>
<path d="M4097 2833 c-4 -3 -7 -69 -7 -145 0 -124 2 -139 16 -136 9 2 26 16
38 31 17 23 22 46 24 122 4 84 2 95 -17 114 -21 21 -42 27 -54 14z"/>
<path d="M3810 1767 c-69 -35 -96 -166 -47 -238 33 -50 75 -58 134 -27 l48 24
3 107 3 108 -43 19 c-51 23 -65 24 -98 7z"/>
<path d="M3002 1765 c-69 -31 -93 -163 -42 -235 28 -39 87 -57 126 -39 46 23
74 74 74 136 0 112 -73 176 -158 138z"/>
<path d="M4608 1765 c-29 -16 -45 -40 -58 -86 l-9 -29 105 0 104 0 0 34 c0 71
-80 116 -142 81z"/>
</g>
</svg>
